<?xml version="1.0" standalone="no"?>
<!DOCTYPE svg PUBLIC "-//W3C//DTD SVG 20010904//EN"
 "http://www.w3.org/TR/2001/REC-SVG-20010904/DTD/svg10.dtd">
<svg version="1.0" xmlns="http://www.w3.org/2000/svg"
 width="500.000000pt" height="500.000000pt" viewBox="0 0 500.000000 500.000000"
 preserveAspectRatio="xMidYMid meet">

<g transform="translate(0.000000,500.000000) scale(0.100000,-0.100000)"
fill="#000000" stroke="none">
<path d="M3157 4529 c10 -35 14 -79 11 -133 -5 -100 -33 -164 -138 -321 -40
-59 -89 -142 -109 -184 -34 -72 -36 -81 -36 -181 0 -93 3 -112 27 -162 34 -73
103 -142 176 -176 49 -23 70 -27 147 -27 82 0 97 3 156 32 320 158 363 705 78
994 -72 73 -176 145 -265 185 -30 13 -56 24 -58 24 -2 0 3 -23 11 -51z" fill="#23304c"/>
<path d="M2687 4020 c-288 -97 -531 -245 -701 -429 -223 -239 -285 -558 -161
-820 27 -56 54 -92 113 -150 92 -91 159 -131 352 -212 305 -129 440 -209 558
-333 115 -121 166 -235 166 -366 -1 -164 -74 -308 -256 -512 l-70 -77 57 19
c218 75 425 193 576 327 184 165 282 339 309 548 19 145 -10 299 -81 436 -90
173 -239 286 -524 399 -97 38 -228 108 -292 157 -112 83 -198 211 -224 332
-34 160 38 356 222 604 45 60 79 110 77 112 -2 2 -57 -14 -121 -35z" fill="#23304c"/>
<path d="M2105 1907 c-138 -37 -265 -147 -334 -289 -50 -104 -65 -176 -64
-303 1 -288 151 -525 441 -699 59 -36 214 -108 219 -102 2 1 -14 35 -35 76
-35 69 -37 77 -37 169 0 137 31 207 174 401 39 52 90 133 113 179 43 84 43 84
43 195 0 107 -1 113 -34 174 -42 77 -105 135 -190 175 -53 25 -78 30 -155 33
-54 2 -111 -2 -141 -9z" fill="#23304c"/>
</g>
</svg>
