<svg xmlns="http://www.w3.org/2000/svg" xmlns:xlink="http://www.w3.org/1999/xlink" width="61" zoomAndPan="magnify" viewBox="0 0 45.75 34.499999" height="46" preserveAspectRatio="xMidYMid meet" version="1.0"><defs><filter x="0%" y="0%" width="100%" height="100%" id="8859086517"><feColorMatrix values="0 0 0 0 1 0 0 0 0 1 0 0 0 0 1 0 0 0 1 0" color-interpolation-filters="sRGB"/></filter><clipPath id="b6b19e3dee"><path d="M 0.203125 0 L 45 0 L 45 34 L 0.203125 34 Z M 0.203125 0 " clip-rule="nonzero"/></clipPath><mask id="3479fffe6b"><g filter="url(#8859086517)"><rect x="-4.575" width="54.9" fill="#000000" y="-3.45" height="41.399999" fill-opacity="0.51"/></g></mask><clipPath id="be0c6df34f"><path d="M 0.203125 0 L 22 0 L 22 33.828125 L 0.203125 33.828125 Z M 0.203125 0 " clip-rule="nonzero"/></clipPath><clipPath id="4150c8d856"><path d="M 23 0 L 44.5625 0 L 44.5625 33.828125 L 23 33.828125 Z M 23 0 " clip-rule="nonzero"/></clipPath><clipPath id="8813ab3f54"><rect x="0" width="45" y="0" height="34"/></clipPath><mask id="8605767dc7"><g filter="url(#8859086517)"><rect x="-4.575" width="54.9" fill="#000000" y="-3.45" height="41.399999" fill-opacity="0.51"/></g></mask><clipPath id="5eafc99c29"><path d="M 0.203125 0 L 22 0 L 22 33.828125 L 0.203125 33.828125 Z M 0.203125 0 " clip-rule="nonzero"/></clipPath><clipPath id="076b4e4481"><path d="M 23 0 L 44.5625 0 L 44.5625 33.828125 L 23 33.828125 Z M 23 0 " clip-rule="nonzero"/></clipPath><clipPath id="c282cf52f5"><rect x="0" width="45" y="0" height="34"/></clipPath></defs><g clip-path="url(#b6b19e3dee)"><g mask="url(#3479fffe6b)"><g><g clip-path="url(#8813ab3f54)"><g clip-path="url(#be0c6df34f)"><path fill="#d7dadb" d="M 11.695312 14.441406 C 9.613281 14.441406 7.65625 15.152344 6.105469 16.308594 C 6.234375 11.425781 10.007812 6.59375 17.417969 1.710938 L 16.308594 0.0234375 C 5.574219 6.675781 0.203125 14.042969 0.203125 21.984375 C 0.203125 25.664062 1.179688 28.503906 3.175781 30.59375 C 5.175781 32.683594 7.703125 33.695312 10.761719 33.695312 C 13.820312 33.695312 16.261719 32.851562 18.171875 31.210938 C 20.035156 29.523438 20.964844 27.527344 20.964844 25.175781 C 20.964844 25.132812 20.964844 25.132812 20.964844 25.085938 C 21.007812 24.691406 21.054688 24.242188 21.054688 23.800781 C 21.054688 18.65625 16.839844 14.441406 11.695312 14.441406 Z M 11.695312 14.441406 " fill-opacity="1" fill-rule="nonzero"/></g><g clip-path="url(#4150c8d856)"><path fill="#d7dadb" d="M 41.957031 30.28125 C 42.085938 30.152344 42.222656 30.015625 42.351562 29.882812 C 43.726562 28.242188 44.574219 26.15625 44.574219 23.851562 C 44.574219 18.664062 40.359375 14.488281 35.210938 14.488281 C 32.859375 14.488281 30.683594 15.378906 29.039062 16.839844 C 29.039062 16.792969 29.039062 16.75 29.039062 16.664062 C 29.039062 11.695312 32.8125 6.722656 40.398438 1.753906 L 39.292969 0.0234375 C 28.507812 6.675781 23.144531 14.042969 23.144531 21.984375 C 23.144531 25.664062 24.117188 28.503906 26.117188 30.59375 C 28.117188 32.683594 30.644531 33.695312 33.703125 33.695312 C 36.761719 33.695312 39.203125 32.851562 41.113281 31.210938 C 41.378906 30.988281 41.597656 30.722656 41.820312 30.457031 C 41.863281 30.410156 41.910156 30.371094 41.957031 30.28125 Z M 41.957031 30.28125 " fill-opacity="1" fill-rule="nonzero"/></g></g></g></g><g mask="url(#8605767dc7)"><g><g clip-path="url(#c282cf52f5)"><g clip-path="url(#5eafc99c29)"><path fill="#d7dadb" d="M 11.695312 14.441406 C 9.613281 14.441406 7.65625 15.152344 6.105469 16.308594 C 6.234375 11.425781 10.007812 6.59375 17.417969 1.710938 L 16.308594 0.0234375 C 5.574219 6.675781 0.203125 14.042969 0.203125 21.984375 C 0.203125 25.664062 1.179688 28.503906 3.175781 30.59375 C 5.175781 32.683594 7.703125 33.695312 10.761719 33.695312 C 13.820312 33.695312 16.261719 32.851562 18.171875 31.210938 C 20.035156 29.523438 20.964844 27.527344 20.964844 25.175781 C 20.964844 25.132812 20.964844 25.132812 20.964844 25.085938 C 21.007812 24.691406 21.054688 24.242188 21.054688 23.800781 C 21.054688 18.65625 16.839844 14.441406 11.695312 14.441406 Z M 11.695312 14.441406 " fill-opacity="1" fill-rule="nonzero"/></g><g clip-path="url(#076b4e4481)"><path fill="#d7dadb" d="M 41.957031 30.28125 C 42.085938 30.152344 42.222656 30.015625 42.351562 29.882812 C 43.726562 28.242188 44.574219 26.15625 44.574219 23.851562 C 44.574219 18.664062 40.359375 14.488281 35.210938 14.488281 C 32.859375 14.488281 30.683594 15.378906 29.039062 16.839844 C 29.039062 16.792969 29.039062 16.75 29.039062 16.664062 C 29.039062 11.695312 32.8125 6.722656 40.398438 1.753906 L 39.292969 0.0234375 C 28.507812 6.675781 23.144531 14.042969 23.144531 21.984375 C 23.144531 25.664062 24.117188 28.503906 26.117188 30.59375 C 28.117188 32.683594 30.644531 33.695312 33.703125 33.695312 C 36.761719 33.695312 39.203125 32.851562 41.113281 31.210938 C 41.378906 30.988281 41.597656 30.722656 41.820312 30.457031 C 41.863281 30.410156 41.910156 30.371094 41.957031 30.28125 Z M 41.957031 30.28125 " fill-opacity="1" fill-rule="nonzero"/></g></g></g></g></g></svg>