<svg xmlns="http://www.w3.org/2000/svg" xmlns:xlink="http://www.w3.org/1999/xlink" width="35" zoomAndPan="magnify" viewBox="0 0 26.25 26.249998" height="35" preserveAspectRatio="xMidYMid meet" version="1.0"><defs><clipPath id="497d40ce47"><path d="M 0 0 L 24.792969 0 L 24.792969 24.792969 L 0 24.792969 Z M 0 0 " clip-rule="nonzero"/></clipPath><clipPath id="3f9d89e4dc"><path d="M 3 14 L 22 14 L 22 24.792969 L 3 24.792969 Z M 3 14 " clip-rule="nonzero"/></clipPath><clipPath id="5e81f58829"><path d="M 0 0 L 24.792969 0 L 24.792969 24.792969 L 0 24.792969 Z M 0 0 " clip-rule="nonzero"/></clipPath><clipPath id="29919fbcd4"><path d="M 3 14 L 22 14 L 22 24.792969 L 3 24.792969 Z M 3 14 " clip-rule="nonzero"/></clipPath></defs><g clip-path="url(#497d40ce47)"><path fill="#d7dadb" d="M 24.988281 12.492188 C 24.988281 15.6875 23.789062 18.605469 21.8125 20.8125 C 19.523438 23.375 16.199219 24.984375 12.492188 24.984375 C 8.789062 24.984375 5.460938 23.375 3.175781 20.8125 C 1.199219 18.605469 0 15.6875 0 12.492188 C 0 5.59375 5.59375 0 12.492188 0 C 19.394531 0 24.988281 5.59375 24.988281 12.492188 " fill-opacity="1" fill-rule="nonzero"/></g><path fill="#f2f2f2" d="M 12.492188 14.792969 C 14.757812 14.792969 16.820312 12.234375 16.820312 9.417969 C 16.820312 6.761719 16.304688 4.132812 12.492188 4.132812 C 8.679688 4.132812 8.167969 6.761719 8.167969 9.417969 C 8.167969 12.234375 10.230469 14.792969 12.492188 14.792969 " fill-opacity="1" fill-rule="nonzero"/><g clip-path="url(#3f9d89e4dc)"><path fill="#f2f2f2" d="M 21.8125 20.8125 C 19.523438 23.375 16.199219 24.984375 12.492188 24.984375 C 8.789062 24.984375 5.460938 23.375 3.175781 20.8125 C 3.136719 19.269531 4.164062 15.695312 9.402344 14.59375 C 10.300781 15.511719 11.402344 16.027344 12.492188 16.027344 C 13.582031 16.027344 14.6875 15.511719 15.582031 14.59375 C 20.824219 15.695312 21.851562 19.269531 21.8125 20.8125 " fill-opacity="1" fill-rule="nonzero"/></g><g clip-path="url(#5e81f58829)"><path fill="#d7dadb" d="M 24.988281 12.492188 C 24.988281 15.6875 23.789062 18.605469 21.8125 20.8125 C 19.523438 23.375 16.199219 24.984375 12.492188 24.984375 C 8.789062 24.984375 5.460938 23.375 3.175781 20.8125 C 1.199219 18.605469 0 15.6875 0 12.492188 C 0 5.59375 5.59375 0 12.492188 0 C 19.394531 0 24.988281 5.59375 24.988281 12.492188 " fill-opacity="1" fill-rule="nonzero"/></g><path fill="#f2f2f2" d="M 12.492188 14.792969 C 14.757812 14.792969 16.820312 12.234375 16.820312 9.417969 C 16.820312 6.761719 16.304688 4.132812 12.492188 4.132812 C 8.679688 4.132812 8.167969 6.761719 8.167969 9.417969 C 8.167969 12.234375 10.230469 14.792969 12.492188 14.792969 " fill-opacity="1" fill-rule="nonzero"/><g clip-path="url(#29919fbcd4)"><path fill="#f2f2f2" d="M 21.8125 20.8125 C 19.523438 23.375 16.199219 24.984375 12.492188 24.984375 C 8.789062 24.984375 5.460938 23.375 3.175781 20.8125 C 3.136719 19.269531 4.164062 15.695312 9.402344 14.59375 C 10.300781 15.511719 11.402344 16.027344 12.492188 16.027344 C 13.582031 16.027344 14.6875 15.511719 15.582031 14.59375 C 20.824219 15.695312 21.851562 19.269531 21.8125 20.8125 " fill-opacity="1" fill-rule="nonzero"/></g></svg>